<?xml version="1.0" encoding="UTF-8" standalone="no"?>
<svg
   width="16"
   height="16"
   fill="currentColor"
   class="bi bi-envelope-fill"
   viewBox="0 0 16 16"
   version="1.1"
   id="svg12"
   sodipodi:docname="envelope-fill.svg"
   inkscape:version="1.1 (c4e8f9e, 2021-05-24)"
   xmlns:inkscape="http://www.inkscape.org/namespaces/inkscape"
   xmlns:sodipodi="http://sodipodi.sourceforge.net/DTD/sodipodi-0.dtd"
   xmlns="http://www.w3.org/2000/svg"
   xmlns:svg="http://www.w3.org/2000/svg">
  <defs
     id="defs16" />
  <sodipodi:namedview
     id="namedview14"
     pagecolor="#ffffff"
     bordercolor="#666666"
     borderopacity="1.0"
     inkscape:pageshadow="2"
     inkscape:pageopacity="0.0"
     inkscape:pagecheckerboard="true"
     showgrid="false"
     inkscape:showpageshadow="false"
     inkscape:zoom="32.9375"
     inkscape:cx="8"
     inkscape:cy="8"
     inkscape:window-width="1564"
     inkscape:window-height="953"
     inkscape:window-x="146"
     inkscape:window-y="105"
     inkscape:window-maximized="0"
     inkscape:current-layer="svg12" />
  <path
     d="M.05 3.555A2 2 0 0 1 2 2h12a2 2 0 0 1 1.95 1.555L8 8.414.05 3.555zM0 4.697v7.104l5.803-3.558L0 4.697zM6.761 8.83l-6.57 4.027A2 2 0 0 0 2 14h12a2 2 0 0 0 1.808-1.144l-6.57-4.027L8 9.586l-1.239-.757zm3.436-.586L16 11.801V4.697l-5.803 3.546z"
     id="path10"
     style="fill:#ffffff" />
</svg>
