<?xml version="1.0" encoding="UTF-8" standalone="no"?>
<!-- Created with Inkscape (http://www.inkscape.org/) -->

<svg
   width="300"
   height="40"
   viewBox="0 0 79.374998 10.583334"
   version="1.1"
   id="svg5"
   inkscape:version="1.1 (c4e8f9e, 2021-05-24)"
   sodipodi:docname="footer.svg"
   xmlns:inkscape="http://www.inkscape.org/namespaces/inkscape"
   xmlns:sodipodi="http://sodipodi.sourceforge.net/DTD/sodipodi-0.dtd"
   xmlns="http://www.w3.org/2000/svg"
   xmlns:svg="http://www.w3.org/2000/svg">
  <sodipodi:namedview
     id="namedview7"
     pagecolor="#ffffff"
     bordercolor="#666666"
     borderopacity="1.0"
     inkscape:pageshadow="2"
     inkscape:pageopacity="0.0"
     inkscape:pagecheckerboard="true"
     inkscape:document-units="mm"
     showgrid="false"
     units="px"
     inkscape:showpageshadow="false"
     inkscape:zoom="5.2766667"
     inkscape:cx="149.24195"
     inkscape:cy="19.993683"
     inkscape:window-width="1752"
     inkscape:window-height="783"
     inkscape:window-x="0"
     inkscape:window-y="23"
     inkscape:window-maximized="0"
     inkscape:current-layer="layer1" />
  <defs
     id="defs2" />
  <g
     inkscape:label="Layer 1"
     inkscape:groupmode="layer"
     id="layer1">
    <path
       style="fill:#4c5964;stroke-width:0.00329708;fill-opacity:1"
       d="m 37.830299,3.4928584 c -0.0055,-0.00149 -0.01806,-0.006 -0.02803,-0.010062 -0.01,-0.004 -0.02135,-0.008 -0.02527,-0.00884 -0.01301,-0.00342 -0.06173,-0.054557 -0.07224,-0.07645 -0.0089,-0.018472 -0.0105,-0.020071 -0.02038,-0.020145 -0.0092,-3.33e-5 -0.03948,-0.014402 -0.07162,-0.03401 -0.03262,-0.019876 -0.113813,-0.089318 -0.113813,-0.097373 0,-0.00928 0.01653,-0.025349 0.04616,-0.044877 0.04813,-0.031749 0.11407,-0.06782 0.123925,-0.06782 0.0032,0 0.0085,-0.00251 0.01181,-0.0055 0.0054,-0.0045 0.01776,-0.010061 0.05055,-0.021269 0.03279,-0.011199 0.04714,-0.013599 0.0929,-0.015599 0.04364,-0.002 0.05124,-0.0035 0.05935,-0.00916 0.0052,-0.004 0.0098,-0.010463 0.01046,-0.014865 6.31e-4,-0.00451 0.0045,-0.018267 0.0086,-0.031008 0.01023,-0.031407 0.01366,-0.05728 0.0078,-0.058817 -0.0025,-6.534e-4 -0.01407,-0.004 -0.02586,-0.00671 -0.04634,-0.012146 -0.0575,-0.016066 -0.07378,-0.02587 -0.0093,-0.00547 -0.01917,-0.012065 -0.02195,-0.014399 -0.0027,-0.00253 -0.02528,-0.00948 -0.05003,-0.015868 -0.06153,-0.015913 -0.07511,-0.02138 -0.167768,-0.067695 -0.07399,-0.037014 -0.07739,-0.039412 -0.100253,-0.071569 -0.0071,-0.00994 -0.01755,-0.063154 -0.01807,-0.091703 -3.45e-4,-0.019068 -0.0042,-0.027073 -0.01888,-0.039346 -0.0058,-0.00458 -0.01531,-0.017143 -0.0211,-0.027206 -0.01095,-0.019142 -0.03608,-0.045679 -0.08842,-0.093354 -0.03611,-0.032875 -0.0668,-0.070127 -0.08194,-0.099417 -0.006,-0.011549 -0.01286,-0.024601 -0.01535,-0.029147 -0.0025,-0.00451 -0.0069,-0.016148 -0.0098,-0.025801 -0.0028,-0.00965 -0.0085,-0.020199 -0.01245,-0.023402 -0.0084,-0.00671 -0.01218,-0.031748 -0.01245,-0.082652 l -1.69e-4,-0.031348 -0.01019,-0.00453 c -0.0086,-0.004 -0.01083,-0.004 -0.01437,2e-5 -0.0076,0.00832 -0.0181,0.072393 -0.02015,0.1232243 -0.0013,0.030551 -0.0078,0.087589 -0.01052,0.091821 -0.0014,0.002 -0.0029,0.014199 -0.0033,0.026871 -4.74e-4,0.012664 -0.0017,0.042349 -0.0028,0.065957 -0.0011,0.023548 -1.76e-4,0.1151017 0.0019,0.2034018 0.0022,0.088295 0.003,0.1633629 0.0019,0.1668108 -0.003,0.00958 -0.03035,0.027548 -0.04483,0.029473 -0.01495,0.002 -0.03322,-0.0055 -0.041,-0.016399 -0.0065,-0.00928 -0.0066,-0.03695 -1.04e-4,-0.098483 0.01869,-0.1786541 0.02755,-0.2827592 0.03271,-0.3843234 0.0029,-0.057354 0.0062,-0.095769 0.0087,-0.1003635 0.0025,-0.0045 0.0042,-0.026273 0.0047,-0.058752 8.67e-4,-0.063622 -6.14e-4,-0.079249 -0.0077,-0.081641 -0.0075,-0.00252 -0.06397,-0.02941 -0.129038,-0.06142 -0.06371,-0.031363 -0.114365,-0.059435 -0.123512,-0.068377 -0.0059,-0.006 -0.006,-0.00672 -0.0012,-0.0116 0.0059,-0.006 0.157433,-0.057153 0.198656,-0.067218 0.01467,-0.0035 0.0363,-0.00986 0.04806,-0.013999 l 0.02139,-0.0075 0.0054,-0.036276 c 0.003,-0.019948 0.0072,-0.041477 0.0094,-0.047815 0.0022,-0.0065 0.0044,-0.024202 0.0049,-0.039749 8.98e-4,-0.027071 0.0054,-0.061683 0.0119,-0.091095 0.0017,-0.00754 0.003,-0.022345 0.003,-0.032748 0,-0.013343 0.0017,-0.020743 0.0058,-0.025205 0.0045,-0.00458 0.0058,-0.012866 0.0061,-0.036547 2.11e-4,-0.016602 0.0023,-0.041947 0.0047,-0.056285 l 0.0043,-0.026078 -0.009,-0.00775 c -0.0051,-0.00465 -0.01287,-0.0076 -0.01785,-0.00735 -0.0089,3.801e-4 -0.053,-0.014538 -0.07149,-0.024141 -0.02146,-0.011137 -0.02879,-0.027609 -0.01826,-0.041012 0.0099,-0.012604 0.03751,-0.027409 0.05098,-0.027409 0.0039,0 0.009,-0.002 0.01126,-0.004 0.0024,-0.00265 0.02068,-0.00535 0.04427,-0.0074 0.03983,-0.00335 0.04023,-0.00335 0.04342,-0.01247 0.0024,-0.007 0.0019,-0.011737 -0.0023,-0.019806 -0.0039,-0.00755 -0.0059,-0.02154 -0.0069,-0.048482 -7.45e-4,-0.020873 -0.0024,-0.042747 -0.0038,-0.048682 -0.0015,-0.00666 -8.5e-4,-0.014538 0.0015,-0.02034 0.0032,-0.0076 0.0031,-0.01207 -2.39e-4,-0.021273 -0.0037,-0.01007 -0.0035,-0.01247 0.0011,-0.017605 0.004,-0.00466 0.0049,-0.0096 0.0035,-0.020206 -0.0015,-0.01127 10e-7,-0.018472 0.0073,-0.034611 0.01351,-0.029942 0.01419,-0.031876 0.01808,-0.051616 0.0043,-0.02194 0.02023,-0.048548 0.03168,-0.052883 0.0046,-0.002 0.01495,-0.00335 0.02297,-0.00335 0.01221,0 0.01778,0.00265 0.03421,0.014938 0.02082,0.015805 0.02076,0.015738 0.0267,0.045681 0.01032,0.052016 0.0091,0.1185627 -0.0025,0.1362481 -0.004,0.006 -0.0046,0.012737 -0.0027,0.031009 0.0022,0.022273 0.002,0.023207 -0.0043,0.021207 -0.0058,-0.002 -0.007,1.801e-4 -0.01031,0.017005 -0.0021,0.01047 -0.0052,0.023674 -0.0069,0.029209 -0.0017,0.00535 -0.0031,0.014138 -0.0031,0.019006 0,0.00666 -0.0023,0.0098 -0.0083,0.01207 -0.0046,0.002 -0.0082,0.00535 -0.0082,0.00735 1.6e-4,0.013338 -0.0077,0.013004 0.311881,0.012804 0.384289,-2.2e-4 0.786086,-0.00335 0.7906,-0.006 0.0018,-0.00135 0.06282,-0.00265 0.135411,-0.00265 0.13831,-6.669e-4 0.269618,-0.00535 0.328152,-0.01147 0.01905,-0.002 0.0502,-0.00466 0.06924,-0.006 0.01905,-0.00135 0.06133,-0.00535 0.09397,-0.00814 0.03265,-0.00265 0.07641,-0.00666 0.09726,-0.00814 0.03555,-0.00265 0.114219,-0.01147 0.17804,-0.020073 0.01542,-0.002 0.04695,-0.00735 0.07008,-0.01167 0.02314,-0.00466 0.04644,-0.00786 0.05177,-0.00786 0.0055,0 0.01313,-0.00135 0.01728,-0.00265 0.0069,-0.00265 0.05564,-0.010403 0.0966,-0.015338 0.0091,-0.00135 0.03503,-0.00535 0.05769,-0.00974 0.04094,-0.00766 0.097,-0.016672 0.166501,-0.026608 0.01995,-0.00265 0.04443,-0.00666 0.0544,-0.0082 0.01,-0.00135 0.03446,-0.00535 0.0544,-0.00774 0.04936,-0.00666 0.116157,-0.018205 0.126604,-0.02234 0.0075,-0.00335 0.03669,-0.00715 0.09924,-0.014138 0.01,-0.00135 0.02333,-0.00335 0.02967,-0.00535 0.0065,-0.002 0.03306,-0.006 0.05935,-0.00954 0.05048,-0.00675 0.114896,-0.016605 0.161556,-0.024874 0.01541,-0.00265 0.0436,-0.00706 0.06265,-0.00967 0.04504,-0.006 0.09591,-0.014338 0.118693,-0.019139 0.01,-0.002 0.02109,-0.004 0.02473,-0.00466 0.0035,-2.801e-4 0.01549,-0.002 0.02637,-0.004 0.05509,-0.010203 0.120788,-0.020473 0.141773,-0.02214 0.0074,-5.668e-4 0.01837,-0.00265 0.02473,-0.00535 0.01082,-0.004 0.03216,-0.00666 0.08737,-0.010804 0.01268,-0.00135 0.06091,-0.008 0.107153,-0.015605 0.04624,-0.00754 0.102621,-0.016405 0.125288,-0.019606 0.07983,-0.011337 0.176559,-0.026275 0.191227,-0.029475 0.0082,-0.002 0.0267,-0.00466 0.04121,-0.00686 0.0145,-0.002 0.03157,-0.00535 0.03792,-0.00675 0.01508,-0.004 0.136172,-0.021473 0.184635,-0.026541 0.02585,-0.00265 0.04317,-0.00666 0.0544,-0.011537 0.02754,-0.01267 0.113406,-0.02154 0.199472,-0.020606 0.06412,6.669e-4 0.157886,0.00686 0.164241,0.010803 0.0015,6.669e-4 0.021,0.00335 0.0436,0.00535 0.04032,0.00335 0.145472,0.017005 0.181208,0.023274 0.01,0.002 0.03742,0.00535 0.06099,0.00826 0.02357,0.00265 0.05163,0.00666 0.06234,0.00854 0.01071,0.002 0.04113,0.006 0.06758,0.0096 0.0485,0.006 0.08017,0.012404 0.176697,0.034477 0.02901,0.00666 0.06017,0.01327 0.06924,0.014804 0.0091,0.00135 0.01946,0.00335 0.02308,0.00466 0.0035,0.00135 0.01846,0.00466 0.03297,0.00806 0.01451,0.00335 0.03379,0.00914 0.04287,0.012737 0.0091,0.00335 0.0239,0.0082 0.03297,0.010136 0.0091,0.002 0.02046,0.004 0.0253,0.00535 0.01833,0.004 0.04558,0.037211 0.04558,0.055617 0,0.014138 -0.0069,0.016605 -0.04045,0.014204 -0.01675,-0.00135 -0.04306,-0.00265 -0.05847,-0.00335 -0.01541,-6.669e-4 -0.05486,-0.00335 -0.08766,-0.00535 -0.05641,-0.00335 -0.06042,-0.00335 -0.07418,0.00265 -0.008,0.00335 -0.02123,0.0084 -0.02939,0.010737 -0.0082,0.00265 -0.01625,0.00535 -0.01796,0.007 -0.0016,0.00135 -0.0092,0.00265 -0.01657,0.00265 -0.0075,0 -0.01645,0.002 -0.02011,0.00466 -0.0035,0.00265 -0.01217,0.006 -0.01891,0.00695 -0.0066,0.00135 -0.01334,0.004 -0.01467,0.006 -0.0026,0.004 -0.03633,0.011804 -0.05373,0.012004 -0.0064,5.34e-5 -0.01423,0.002 -0.01775,0.00466 -0.0035,0.00265 -0.0097,0.00466 -0.01382,0.00466 -0.0041,0 -0.0083,0.00135 -0.0093,0.00335 -10e-4,0.00135 -0.0081,0.004 -0.01569,0.00535 -0.0075,0.00135 -0.02035,0.00535 -0.02828,0.00854 -0.0079,0.00335 -0.01695,0.006 -0.01998,0.006 -0.0031,0 -0.01106,0.00265 -0.01779,0.00666 -0.0066,0.00335 -0.01562,0.00666 -0.01974,0.006 -0.0042,-1.801e-4 -0.01195,0.00135 -0.01737,0.00335 -0.03565,0.012537 -0.05135,0.017005 -0.0601,0.017005 -0.0055,0 -0.01183,0.002 -0.01407,0.00466 -0.0024,0.00265 -0.0089,0.00466 -0.01485,0.00466 -0.0059,0 -0.01269,0.00265 -0.01509,0.00535 -0.0033,0.004 -0.0075,0.00466 -0.01647,0.00335 -0.0091,-0.00135 -0.01415,-3.468e-4 -0.02007,0.004 -0.0045,0.00335 -0.01496,0.00735 -0.02354,0.0086 -0.0085,0.00135 -0.01638,0.00335 -0.01736,0.00535 -10e-4,0.00135 -0.0075,0.00265 -0.01438,0.00265 -0.0072,0 -0.01436,0.002 -0.01668,0.00466 -0.0024,0.00265 -0.0076,0.00466 -0.01211,0.00466 -0.0045,0 -0.01254,0.00265 -0.01806,0.00535 -0.0055,0.00265 -0.01612,0.006 -0.02352,0.00666 -0.0075,6.669e-4 -0.01497,0.00265 -0.01681,0.00466 -0.0018,0.002 -0.008,0.00335 -0.0136,0.00335 -0.0055,0 -0.01314,0.002 -0.01666,0.00466 -0.0035,0.00265 -0.01291,0.00466 -0.02087,0.00466 -0.0091,6.67e-5 -0.01586,0.002 -0.01815,0.00535 -0.002,0.00265 -0.0093,0.00535 -0.01606,0.00535 -0.0067,2.601e-4 -0.01405,0.00265 -0.01606,0.00466 -0.002,0.00265 -0.0075,0.00466 -0.01233,0.00466 -0.0046,6.67e-5 -0.01236,0.002 -0.0169,0.00466 -0.0045,0.00265 -0.0122,0.00466 -0.01705,0.00466 -0.0048,6.67e-5 -0.01299,0.002 -0.01814,0.00466 -0.01536,0.0076 -0.03207,0.01187 -0.04644,0.01187 -0.01087,0 -0.01398,0.00135 -0.01576,0.00695 -0.0016,0.00535 -0.0041,0.00666 -0.01122,0.00535 -0.005,-6.668e-4 -0.01314,3.335e-4 -0.01817,0.00265 -0.0051,0.00265 -0.01312,0.00466 -0.01795,0.00466 -0.0047,0 -0.01171,0.002 -0.01527,0.00466 -0.0035,0.00265 -0.0128,0.00535 -0.02049,0.00686 -0.0076,0.00135 -0.01484,0.004 -0.01586,0.00535 -0.001,0.00135 -0.0084,0.00335 -0.01631,0.00335 -0.0079,0 -0.01536,0.00135 -0.01648,0.00335 -0.0012,0.002 -0.0065,0.00335 -0.01229,0.00335 -0.0055,0 -0.0126,0.002 -0.01546,0.00466 -0.0098,0.0084 -0.04402,0.012004 -0.11291,0.012004 -0.04498,0 -0.06868,0.00135 -0.06868,0.00335 0,0.002 0.0025,0.004 0.0057,0.00535 0.0033,6.67e-4 0.0087,0.00335 0.01236,0.00535 0.0035,0.002 0.01787,0.00927 0.03165,0.016139 0.01377,0.00686 0.02695,0.014738 0.02926,0.017539 0.0025,0.00265 0.0059,0.00536 0.0081,0.00536 0.0022,0 0.01175,0.004 0.02129,0.0084 0.0095,0.00464 0.02169,0.00927 0.02699,0.010267 0.01144,0.002 0.01266,0.010068 0.0023,0.013871 -0.0065,0.00262 -0.04958,0.00775 -0.06181,0.0076 -0.0026,-3.34e-5 -0.02053,0.00262 -0.03956,0.006 -0.01905,0.00339 -0.03833,0.006 -0.04287,0.006 -0.0045,3.33e-5 -0.01492,0.002 -0.02308,0.00339 -0.0082,0.002 -0.03561,0.006 -0.06099,0.0084 -0.02538,0.0026 -0.0558,0.0066 -0.06759,0.00835 -0.0496,0.0082 -0.06179,0.0098 -0.0767,0.00987 -0.0086,4e-5 -0.01828,0.00141 -0.02144,0.00341 -0.009,0.00459 -0.0581,0.010543 -0.100448,0.011866 -0.03813,0.00142 -0.07508,0.00846 -0.08132,0.016002 -0.0015,0.002 -0.0085,0.016344 -0.01528,0.031747 -0.0066,0.015401 -0.01501,0.034275 -0.01842,0.041878 -0.0035,0.00753 -0.0063,0.018346 -0.0063,0.023869 0,0.00547 -0.0044,0.020067 -0.0095,0.032349 -0.017,0.039676 -0.02436,0.058281 -0.02866,0.072344 -0.0042,0.013599 -0.0041,0.013865 0.0064,0.021668 0.0057,0.004 0.01346,0.009 0.01708,0.010348 0.01547,0.006 0.206139,0.023871 0.295085,0.027949 0.02448,0.0015 0.04643,0.0035 0.04878,0.00451 0.0055,0.00349 0.128392,0.015348 0.261139,0.025269 0.02447,0.002 0.04822,0.004 0.05276,0.0045 0.0045,6.665e-4 0.04385,0.00451 0.08737,0.00824 0.04352,0.0035 0.09322,0.00808 0.11045,0.00986 0.0913,0.00958 0.104437,0.010347 0.130303,0.007 0.01446,-0.002 0.03372,-0.004 0.04279,-0.0055 0.0091,-0.0015 0.02909,-0.004 0.04451,-0.0065 0.01541,-0.0025 0.04435,-0.007 0.06429,-0.0098 0.01995,-0.0025 0.06595,-0.00958 0.102209,-0.015065 0.03627,-0.0055 0.08078,-0.012148 0.09891,-0.014664 0.01814,-0.0025 0.04633,-0.007 0.06265,-0.00974 0.03244,-0.0055 0.08744,-0.013799 0.17594,-0.026349 0.03148,-0.00451 0.06835,-0.0112 0.08192,-0.015067 0.02964,-0.0084 0.09543,-0.036073 0.117137,-0.049409 0.05047,-0.031074 0.133375,-0.1023641 0.161938,-0.139289 0.0093,-0.012062 0.03178,-0.039078 0.04993,-0.060084 0.01814,-0.021003 0.0389,-0.045413 0.04616,-0.054216 0.0074,-0.0088 0.03174,-0.037747 0.0544,-0.064353 0.02267,-0.026608 0.04492,-0.053082 0.04945,-0.058818 0.0045,-0.006 0.01788,-0.02174 0.02967,-0.035544 0.01178,-0.013804 0.03035,-0.035811 0.04122,-0.048948 0.01087,-0.013137 0.0272,-0.03241 0.03627,-0.042813 0.04769,-0.054824 0.103854,-0.1221905 0.103854,-0.124658 0,-0.00135 0.0055,-0.00794 0.01186,-0.014204 0.01775,-0.017004 0.108072,-0.1247694 0.181959,-0.2170641 0.01217,-0.0152046 0.02845,-0.0344107 0.03616,-0.0426129 0.0076,-0.008202 0.01401,-0.0161387 0.01401,-0.017472 0,-0.004656 0.06759,-0.0705681 0.07978,-0.0781038 0.0126,-0.007802 0.03213,-0.00947 0.04161,-0.003335 0.0049,0.003335 0.0076,0.002 0.01618,-0.006668 0.02052,-0.0205607 0.04376,-0.009224 0.04376,0.0213187 v 0.016352 l 0.03736,3.4681e-4 c 0.02116,1.9339e-4 0.04044,0.002 0.04445,0.004001 0.0071,0.004001 0.04365,0.008469 0.116027,0.0149379 0.0082,6.6685e-4 0.02446,0.002667 0.03627,0.004668 0.01177,0.002 0.05111,0.006666 0.08737,0.0104032 0.08868,0.00947 0.100561,0.0135375 0.100561,0.034477 0,0.0128037 -0.0055,0.0207394 -0.01605,0.0221401 -0.0061,6.6682e-4 -0.0089,0.004656 -0.01376,0.0204063 -0.0035,0.01067 -0.0097,0.023341 -0.01441,0.028142 -0.0049,0.00466 -0.0094,0.013938 -0.01056,0.020206 -0.0014,0.006 -0.0035,0.013004 -0.005,0.014871 -0.0015,0.002 -0.0049,0.011537 -0.0075,0.021406 -0.0027,0.00987 -0.0073,0.026075 -0.01025,0.036077 -0.0034,0.010003 -0.0085,0.028542 -0.01237,0.041212 -0.004,0.01267 -0.0082,0.025675 -0.0097,0.028809 -0.0016,0.00335 -0.0031,0.0086 -0.0031,0.012204 0,0.00335 -0.0015,0.00726 -0.0032,0.00826 -0.0016,6.669e-4 -0.0043,0.00866 -0.005,0.017139 -0.0015,0.0084 -0.0037,0.018473 -0.0051,0.022273 -0.0015,0.004 -0.0056,0.018139 -0.0098,0.031743 -0.0041,0.013604 -0.01064,0.034544 -0.01515,0.046481 -0.0046,0.011937 -0.0091,0.029743 -0.01018,0.039545 -0.0013,0.0098 -0.0043,0.021807 -0.0064,0.026741 -0.0025,0.00466 -0.0059,0.016672 -0.0082,0.026141 -0.0022,0.00947 -0.0064,0.021807 -0.0099,0.027342 -0.0035,0.00535 -0.006,0.01267 -0.006,0.015805 0,0.00335 -0.0023,0.010536 -0.005,0.016472 -0.0044,0.0092 -0.01877,0.056017 -0.02838,0.089961 -0.0015,0.00536 -0.0081,0.027607 -0.01454,0.049349 -0.0065,0.021671 -0.01171,0.043413 -0.01171,0.048215 0,0.00458 -0.0047,0.019743 -0.01028,0.033077 -0.0055,0.013402 -0.01151,0.027273 -0.01303,0.030947 -0.0015,0.00345 -0.0036,0.013863 -0.0049,0.022746 -0.0011,0.00886 -0.004,0.020002 -0.0062,0.024746 -0.0025,0.00453 -0.0061,0.016001 -0.0085,0.02507 -0.0025,0.00906 -0.0055,0.017867 -0.0071,0.0196 -0.0015,0.002 -0.0029,0.00727 -0.0029,0.012199 0,0.00452 -0.0016,0.013199 -0.0038,0.018265 -0.0022,0.0055 -0.0055,0.013665 -0.0077,0.019147 -0.0043,0.00986 -0.0063,0.016999 -0.02304,0.072535 -0.0049,0.016348 -0.01183,0.038613 -0.01541,0.04948 -0.0035,0.010861 -0.0077,0.025 -0.0094,0.031351 -0.0045,0.017799 -0.02196,0.076484 -0.02556,0.085726 -0.0035,0.00928 0.0035,0.104505 0.008,0.1088868 0.0015,0.0015 0.09621,0.0035 0.210453,0.0045 0.209588,0.002 0.278194,0.00451 0.317888,0.013464 0.01194,0.0025 0.03803,0.00719 0.05797,0.010064 0.04312,0.0065 0.08096,0.013399 0.09829,0.018199 0.0091,0.0025 0.01229,0.0055 0.01146,0.00906 -0.0012,0.0055 -0.0091,0.0055 -0.08345,0.006 -0.04534,3.201e-4 -0.08757,6.671e-4 -0.09391,0.0015 -0.0764,0.0045 -0.262579,0.011464 -0.421728,0.014799 -0.04427,6.667e-4 -0.08173,0.0025 -0.08325,0.0035 -0.0015,6.67e-4 -0.0027,0.00756 -0.0027,0.014948 0,0.022549 -0.0085,0.031474 -0.03461,0.036149 -0.04466,0.00808 -0.07948,0.016463 -0.103934,0.025068 -0.04116,0.014547 -0.08158,0.027349 -0.08638,0.027404 -0.0025,6.5e-6 -0.008,0.002 -0.01267,0.0045 -0.0045,0.0025 -0.01281,0.0055 -0.01814,0.00661 -0.01436,0.0035 -0.07953,0.023803 -0.129018,0.040276 -0.02394,0.00792 -0.04701,0.014463 -0.05127,0.014463 -0.0044,0 -0.0095,0.002 -0.01155,0.004 -0.0021,0.002 -0.01463,0.0045 -0.02786,0.0055 -0.01325,6.667e-4 -0.03519,0.0025 -0.04879,0.004 -0.01359,0.0015 -0.04624,0.0045 -0.07254,0.00651 -0.02629,0.002 -0.05374,0.0055 -0.061,0.00728 -0.0073,0.002 -0.02877,0.00451 -0.0478,0.006 -0.01905,0.0015 -0.04723,0.004 -0.06265,0.006 -0.04827,0.006 -0.109806,0.012261 -0.152203,0.015199 -0.01148,6.673e-4 -0.03054,0.0025 -0.04233,0.00451 -0.01177,0.002 -0.04368,0.0055 -0.07088,0.00817 -0.106653,0.010462 -0.124463,0.012264 -0.196173,0.019999 -0.0408,0.0045 -0.112759,0.0118 -0.159906,0.016399 -0.04715,0.0045 -0.09685,0.0098 -0.110453,0.0116 -0.02172,0.0025 -0.06188,0.00652 -0.121989,0.011662 -0.01,6.67e-4 -0.02629,0.0025 -0.03627,0.00451 -0.01,0.002 -0.03519,0.0045 -0.05605,0.0065 -0.06211,0.006 -0.247459,0.024347 -0.347839,0.035013 -0.07492,0.00792 -0.142479,0.014599 -0.182985,0.017999 -0.02086,0.002 -0.05943,0.0055 -0.08572,0.00824 -0.08524,0.009 -0.174601,0.017999 -0.260057,0.026269 -0.04602,0.0045 -0.0883,0.00877 -0.09396,0.00974 -0.0055,6.671e-4 -0.04294,0.00451 -0.08284,0.00848 -0.03989,0.004 -0.08663,0.00871 -0.103857,0.011347 -0.01723,0.0025 -0.04616,0.0055 -0.06429,0.00661 -0.01814,0.0015 -0.04484,0.004 -0.05935,0.0065 -0.04731,0.00817 -0.168807,0.02147 -0.255521,0.02795 -0.02448,0.002 -0.07344,0.006 -0.108801,0.00995 -0.03536,0.0035 -0.08358,0.00808 -0.107154,0.00986 -0.03943,0.00251 -0.09198,0.00832 -0.163203,0.016348 -0.01541,0.002 -0.04212,0.004 -0.05936,0.0055 -0.07912,0.0045 -0.177567,0.016467 -0.188755,0.021999 -0.0071,0.0035 -0.0073,0.012947 -5.41e-4,0.03221 0.0027,0.00817 0.0065,0.020748 0.0079,0.028003 0.0015,0.00746 0.0058,0.025871 0.0096,0.041275 0.0036,0.015399 0.0079,0.033209 0.0093,0.039549 l 0.0025,0.011547 0.02473,0.002 c 0.01359,0.0015 0.05515,0.00251 0.09232,0.004 0.03718,6.667e-4 0.06981,0.0025 0.07254,0.0035 0.0026,6.67e-4 0.01534,0.00251 0.02802,0.0035 0.01269,6.671e-4 0.02976,0.0035 0.03792,0.0045 0.0082,0.002 0.03265,0.0055 0.0544,0.00851 0.02176,0.00251 0.04921,0.00746 0.06099,0.0098 0.01178,0.0025 0.02268,0.004 0.02422,0.0025 0.0015,-6.67e-4 0.006,-1.935e-4 0.0099,0.0015 0.008,0.004 0.03908,0.010548 0.09386,0.020599 0.02051,0.004 0.04055,0.00817 0.04451,0.00965 0.004,0.0015 0.01355,0.0045 0.02127,0.00651 0.0077,0.002 0.01914,0.00824 0.02533,0.013664 0.02306,0.020268 0.07078,0.099197 0.06657,0.1101473 -0.0023,0.006 -0.02227,0.018799 -0.05486,0.035676 -0.0136,0.00709 -0.02707,0.014865 -0.02994,0.017399 -0.0028,0.0025 -0.0066,0.0045 -0.0085,0.0045 -0.0035,0 -0.02238,0.00824 -0.03075,0.013347 -0.01443,0.00894 -0.04245,0.0222 -0.0511,0.024269 -0.0055,0.00149 -0.01657,0.0055 -0.02473,0.009 -0.02528,0.0114 -0.02769,0.012263 -0.03957,0.013748 -0.01186,0.00149 -0.04475,0.0106 -0.08224,0.022868 -0.01436,0.0045 -0.03147,0.00728 -0.05275,0.00766 l -0.03154,6.668e-4 -0.01425,0.024147 c -0.01794,0.030471 -0.05232,0.065755 -0.07828,0.080371 -0.01098,0.006 -0.03177,0.015149 -0.04616,0.019868 -0.02426,0.00792 -0.02945,0.00852 -0.07069,0.00728 -0.04054,-0.0015 -0.04667,-0.0025 -0.06872,-0.011599 -0.03198,-0.013365 -0.04694,-0.02377 -0.0748,-0.051978 -0.02155,-0.021799 -0.03614,-0.045277 -0.05055,-0.081424 -0.0029,-0.00751 -0.0055,-0.00906 -0.01491,-0.00906 -0.01686,0 -0.04551,-0.017548 -0.148753,-0.090941 -0.04747,-0.03375 -0.04126,-0.03255 -0.07748,-0.015399 -0.04253,0.020068 -0.09998,0.04035 -0.118393,0.041751 -0.0084,6.269e-4 -0.02016,0.004 -0.02631,0.007 -0.01027,0.0055 -0.02265,0.00851 -0.07785,0.019399 l -0.01977,0.004 -0.01153,0.021269 c -0.02058,0.038147 -0.06882,0.07988 -0.109521,0.094829 -0.02176,0.008 -0.08919,0.00942 -0.113483,0.00252 -0.03905,-0.011395 -0.06472,-0.025998 -0.09307,-0.053076 -0.0259,-0.024746 -0.03825,-0.044014 -0.05319,-0.083017 -0.0025,-0.00651 -0.0045,-0.00728 -0.01592,-0.0055 -0.01116,0.002 -0.01636,2.536e-4 -0.0355,-0.010399 -0.04397,-0.024519 -0.08867,-0.052053 -0.107382,-0.066194 -0.01045,-0.00783 -0.0198,-0.014349 -0.0208,-0.014349 -0.0043,0 -0.03304,-0.024148 -0.03645,-0.030473 -0.0029,-0.0055 -0.0025,-0.00974 0.0023,-0.020146 0.0068,-0.015399 0.01014,-0.018199 0.05424,-0.047078 0.01814,-0.011863 0.03667,-0.024201 0.04121,-0.027347 0.01241,-0.00861 0.08929,-0.045478 0.100578,-0.048151 0.0055,-0.00149 0.01728,-0.0055 0.02636,-0.00965 0.01541,-0.00671 0.02207,-0.009 0.05605,-0.018399 0.01238,-0.0035 0.13672,-0.009 0.211938,-0.00948 0.02929,-2.002e-4 0.03415,-0.0015 0.03568,-0.006 0.0021,-0.00661 0.0023,-0.00691 0.01963,-0.032408 0.0075,-0.010746 0.01895,-0.025349 0.02576,-0.03235 0.0085,-0.00884 0.01134,-0.013865 0.0089,-0.016267 -0.0035,-0.00347 -0.134792,6.854e-4 -0.252498,0.00827 -0.03083,0.002 -0.102044,0.004 -0.158259,0.004 -0.08258,4.867e-4 -0.103693,-2.802e-4 -0.109946,-0.004 -0.0057,-0.0035 -0.01793,-0.0045 -0.04784,-0.0035 -0.02206,5.333e-4 -0.04196,-1.734e-4 -0.04422,-0.0015 -0.0024,-0.0015 -0.0072,-0.0015 -0.01085,-4.13e-4 -0.0036,0.0015 -0.0085,6.667e-4 -0.01067,-0.0015 -0.0023,-0.002 -0.02103,-0.0045 -0.04188,-0.00681 -0.0209,-0.00169 -0.06541,-0.0065 -0.09896,-0.010263 -0.08799,-0.00939 -0.143924,-0.0151 -0.193125,-0.019236 l -0.04327,-0.0035 -0.03066,0.0102 c -0.01687,0.00551 -0.03246,0.010232 -0.03464,0.010232 -0.0023,0 -0.0057,0.002 -0.0081,0.0045 -0.0045,0.0055 -0.01736,0.00651 -0.02625,0.002 -0.0045,-0.0025 -0.0082,-0.0015 -0.01462,0.0035 -0.0098,0.00766 -0.01085,0.013546 -0.0035,0.019599 0.0027,0.00251 0.0048,0.00746 0.0045,0.011149 -9.61e-4,0.012663 1.58e-4,0.015148 0.0069,0.015148 0.0035,0 0.01296,0.0035 0.0206,0.00719 0.0075,0.004 0.01907,0.00841 0.02542,0.00974 0.0065,0.00149 0.01598,0.0035 0.02144,0.00451 0.0055,0.0015 0.01248,0.0045 0.01566,0.00736 0.02154,0.018748 -0.01875,0.083137 -0.05201,0.083137 -0.0046,0 -0.01009,0.004 -0.01516,0.011748 -0.0071,0.0106 -0.04641,0.039277 -0.07206,0.05248 -0.01765,0.00916 -0.01245,0.013147 0.03371,0.026149 0.02403,0.00661 0.04997,0.015148 0.05767,0.018667 0.0076,0.0035 0.01698,0.00651 0.02066,0.00651 0.0068,0 0.116231,0.033873 0.148119,0.045877 0.02489,0.00942 0.0369,0.022399 0.06142,0.066618 0.02146,0.038677 0.0246,0.048815 0.01711,0.054953 -0.0045,0.0035 -0.06732,0.026402 -0.0816,0.029605 -0.0045,0.0015 -0.01345,0.0055 -0.01977,0.00937 -0.0065,0.004 -0.01969,0.0098 -0.02967,0.012599 -0.01,0.00251 -0.03446,0.00965 -0.0544,0.015347 -0.01995,0.0055 -0.04427,0.012464 -0.05407,0.015148 -0.01424,0.004 -0.02414,0.004 -0.04946,0.002 -0.02667,-0.0025 -0.03218,-0.002 -0.03496,0.002 -0.0017,0.0025 -0.0077,0.011748 -0.01317,0.020199 -0.01567,0.024268 -0.03811,0.043615 -0.07307,0.062882 l -0.03246,0.017948 -0.03297,6.668e-4 c -0.01815,5.365e-4 -0.03743,-3.373e-4 -0.04287,-0.00193 z m 1.744133,-0.3991547 c 0.0035,-0.0035 0.01625,-0.010548 0.02802,-0.016147 0.01178,-0.0055 0.03107,-0.015546 0.04286,-0.021999 0.01178,-0.00651 0.03362,-0.015999 0.04852,-0.021148 0.05201,-0.017999 0.06236,-0.041013 0.0383,-0.084982 -0.0065,-0.012146 -0.01523,-0.028149 -0.01906,-0.035548 -0.0037,-0.00751 -0.01431,-0.024201 -0.0233,-0.03735 l -0.01634,-0.023868 -0.02478,0.002 c -0.01364,0.0015 -0.06113,0.00251 -0.10556,0.004 -0.07703,0.002 -0.08943,0.0035 -0.120732,0.011 -0.0075,0.002 -0.03214,0.004 -0.05482,0.00451 -0.04665,0.0015 -0.05634,0.0055 -0.09286,0.03401 -0.03534,0.027872 -0.05684,0.04988 -0.05193,0.053152 0.0025,0.0015 0.02543,0.0035 0.0511,0.0035 0.02567,3.333e-4 0.05262,0.002 0.05987,0.004 0.0073,0.002 0.02209,0.00451 0.03297,0.006 0.03523,0.0045 0.08544,0.016799 0.09599,0.023347 0.0055,0.0035 0.01348,0.00651 0.0174,0.00651 0.0045,0 0.0083,0.00251 0.01007,0.00774 0.0015,0.004 0.0055,0.00861 0.0082,0.0098 0.0028,0.00149 0.0053,0.0055 0.0053,0.00995 0,0.0045 0.0025,0.00986 0.0053,0.012263 0.0028,0.00251 0.0098,0.011064 0.01546,0.019347 0.02752,0.040412 0.03402,0.044279 0.0502,0.029806 z m -1.565999,-0.043414 c 0.01525,-0.00751 0.03185,-0.017149 0.03689,-0.0212 0.0092,-0.00751 0.0092,-0.00751 0.0025,-0.0138 -0.0076,-0.00751 -0.07096,-0.024947 -0.07518,-0.020667 -0.0015,0.00149 -0.0056,0.015946 -0.0094,0.032011 -0.0062,0.027669 -0.0063,0.029349 -7.25e-4,0.03335 0.0091,0.00651 0.01618,0.0055 0.04579,-0.00958 z m -0.10342,-0.2021539 c -6.16e-4,-0.012665 -0.0022,-0.024147 -0.0035,-0.025473 -0.0014,-0.0015 -0.02737,-0.0035 -0.05803,-0.0045 -0.03881,-0.0015 -0.0593,-0.0035 -0.06748,-0.00691 -0.0065,-0.00252 -0.02508,-0.00923 -0.04141,-0.01441 -0.07534,-0.023824 -0.138972,-0.051702 -0.194188,-0.085274 -0.01233,-0.00751 -0.02375,-0.012799 -0.02538,-0.011799 -0.0055,0.0035 -0.0031,0.031149 0.004,0.045278 0.0076,0.015065 0.01877,0.028749 0.02357,0.028749 0.0033,0 0.02385,0.00937 0.07826,0.035549 0.06215,0.029874 0.08457,0.039412 0.102594,0.043477 0.0098,0.002 0.02367,0.0055 0.03094,0.00751 0.0073,0.002 0.03726,0.00451 0.06666,0.0055 0.02941,0.0015 0.05458,0.0035 0.05593,0.0045 0.0015,0.00149 0.0085,0.002 0.01576,0.00149 l 0.01333,-7.266e-4 z m -0.68714,-0.8922183 c 0.0054,-0.002 0.0074,-0.0055 0.0074,-0.012547 0,-0.00691 0.0019,-0.010349 0.0068,-0.01195 0.0047,-0.0015 0.0061,-0.004 0.0046,-0.00756 -0.0012,-0.0035 -0.0029,-0.00728 -0.0038,-0.00937 -0.0022,-0.0055 0.0067,-0.00948 0.03025,-0.014264 0.01088,-0.002 0.02553,-0.006 0.03256,-0.00871 0.007,-0.0025 0.02822,-0.00681 0.04709,-0.00953 0.01887,-0.0025 0.04131,-0.00651 0.04987,-0.00848 0.03008,-0.00691 0.14569,-0.0224 0.218327,-0.029272 0.02267,-0.002 0.06273,-0.006 0.08902,-0.00872 0.06006,-0.006 0.06827,-0.00662 0.174742,-0.012948 0.04805,-0.00252 0.0896,-0.006 0.09232,-0.00744 0.0026,-0.00148 0.02719,-0.00348 0.0544,-0.004 0.04132,-0.00148 0.04937,-0.00252 0.04893,-0.00653 -6.72e-4,-0.006 -0.01181,-0.033008 -0.02983,-0.071421 -0.0077,-0.016602 -0.01416,-0.032408 -0.01416,-0.035147 0,-0.00257 -0.0053,-0.011143 -0.01155,-0.018743 -0.0065,-0.00757 -0.01155,-0.016542 -0.01155,-0.019872 0,-0.00669 -0.01521,-0.026344 -0.02046,-0.026344 -0.0018,0 -0.0081,-0.004 -0.01385,-0.0092 -0.0097,-0.00846 -0.01278,-0.0092 -0.04134,-0.00994 -0.0249,-6.136e-4 -0.03207,3.001e-4 -0.03695,0.00462 -0.0054,0.00462 -0.01186,0.00538 -0.05306,0.00338 -0.07032,-0.00338 -0.134978,-0.0076 -0.175597,-0.01147 -0.01995,-0.002 -0.06891,-0.00536 -0.108802,-0.00694 -0.03989,-0.002 -0.109626,-0.006 -0.15496,-0.00866 -0.143029,-0.009 -0.13456,-0.0088 -0.141775,-0.00335 -0.0055,0.004 -0.007,0.010339 -0.0088,0.038946 -0.003,0.045014 -0.0054,0.057285 -0.01294,0.064018 -0.0034,0.00343 -0.0062,0.0088 -0.0062,0.012664 0,0.004 -0.0022,0.010144 -0.0049,0.013943 -0.0065,0.00926 -0.01009,0.041078 -0.0056,0.04948 0.0047,0.00874 0.0014,0.020146 -0.0066,0.022667 -0.01003,0.00347 -0.01351,0.016864 -0.01332,0.052479 1.59e-4,0.029474 -5.14e-4,0.033349 -0.0066,0.037551 -0.0059,0.004 -0.0065,0.00728 -0.0051,0.02567 l 0.0017,0.020947 -0.01034,0.0025 c -0.009,0.002 -0.01047,0.004 -0.01139,0.015264 -9.81e-4,0.011864 -5.69e-4,0.012548 0.0072,0.011 0.0046,-6.673e-4 0.0102,-3.201e-4 0.01259,0.0015 0.0043,0.00251 0.01778,0.0015 0.03154,-0.004 z m 3.58734,-0.059884 c 0.0018,-0.002 0.0055,-0.010062 0.0082,-0.017348 0.0063,-0.017146 0.0246,-0.063017 0.03062,-0.076301 0.0025,-0.006 0.0046,-0.011401 0.0046,-0.012665 0,-0.00147 0.0027,-0.006 0.0062,-0.011061 0.0035,-0.00454 0.0074,-0.012462 0.0086,-0.017001 0.0015,-0.00455 0.0083,-0.020467 0.01526,-0.035475 0.007,-0.015001 0.01275,-0.029074 0.01275,-0.031348 0,-0.00458 -0.03852,-0.006 -0.04554,-0.00142 -0.0042,0.00258 -0.01972,0.00458 -0.05501,0.006 -0.0091,4.668e-4 -0.01864,0.002 -0.02126,0.004 -0.0025,0.002 -0.01187,0.00257 -0.02056,0.00257 -0.0086,-1.866e-4 -0.0167,0.00143 -0.0178,0.00257 -0.0011,0.002 -0.0061,0.00257 -0.011,0.00143 -0.0049,-0.00143 -0.01335,-1.669e-4 -0.01865,0.002 -0.0054,0.002 -0.01557,0.00456 -0.02283,0.00544 -0.0225,0.002 -0.04137,0.004 -0.08407,0.00935 -0.02266,0.00256 -0.04813,0.00544 -0.05658,0.006 -0.0085,3.335e-4 -0.01648,0.002 -0.01786,0.00345 -0.0015,0.00145 -0.0053,0.00255 -0.0085,0.00255 -0.01106,0 -0.0064,0.00684 0.0096,0.013743 0.04153,0.018066 0.09974,0.047815 0.147542,0.075357 0.02901,0.016748 0.05943,0.034149 0.06759,0.038748 0.0082,0.0045 0.02375,0.013999 0.03462,0.020947 0.02103,0.013399 0.02841,0.015265 0.03396,0.00854 z m -2.602083,-0.08742 c 0.0037,-0.00347 0.01602,-0.017066 0.0272,-0.031009 0.02031,-0.025269 0.06396,-0.070649 0.100891,-0.1049382 l 0.01955,-0.018142 -0.01789,-0.002 c -0.0099,-0.0014 -0.02796,-0.0026 -0.04024,-0.004 -0.01228,-6.672e-4 -0.02344,-0.0026 -0.02476,-0.0034 -0.0015,-6.668e-4 -0.02689,-0.0026 -0.0568,-0.004 -0.0521,-0.002 -0.05496,-0.002 -0.06841,0.0054 -0.01358,0.00706 -0.02821,0.021671 -0.02597,0.025945 0.0036,0.00707 0.02307,0.049213 0.03351,0.072971 0.0305,0.069469 0.03032,0.069169 0.04114,0.069119 0.0026,-1.28e-5 0.008,-0.00252 0.0118,-0.006 z"
       id="path123" />
    <path
       style="fill:#4c5964;stroke-width:0.116215;fill-opacity:1"
       d="M 0,7.0386518 V 3.4940875 h 0.22362279 0.22362278 l 1.19612353,0.4067533 1.1961235,0.4067533 0.7011815,0.00172 0.7011817,0.00172 0.7186401,0.1694586 0.71864,0.1694586 1.082696,0.5649676 1.0826959,0.5649675 1.1040447,-0.1004132 1.1040445,-0.1004132 0.522969,0.2043146 0.522968,0.2043146 0.871614,-0.028289 0.871615,-0.028289 0.871614,-0.024772 0.871614,-0.024772 1.104045,0.1136837 1.104044,0.1136837 1.394583,-0.045326 1.394583,-0.045326 1.45269,-0.00908 1.45269,-0.00908 2.033767,0.7377292 2.033766,0.7377294 0.639184,0.1570163 0.639184,0.1570164 0.813506,0.2002378 0.813507,0.2002378 1.336475,0.00662 1.336475,0.00662 0.136855,0.087565 0.136855,0.087565 1.257728,0.1895797 1.257728,0.1895796 0.394941,-0.018201 0.394941,-0.018201 0.709104,-0.1793996 0.709103,-0.1793995 1.212916,-0.5873804 1.212918,-0.5873803 0.479333,0.054028 0.479332,0.054028 0.763039,0.3052632 0.763038,0.3052634 0.619246,-0.1838964 0.619245,-0.1838963 0.702462,-0.051233 0.702461,-0.051233 0.406753,-0.033867 0.406753,-0.033867 0.929722,-0.084468 0.929722,-0.084468 1.394583,-0.3305707 1.394582,-0.3305708 0.813507,-0.1217007 0.813507,-0.1217007 0.813506,-0.1905428 0.813507,-0.1905426 0.871614,-0.1615814 0.871614,-0.1615813 0.581076,-0.127564 0.581076,-0.127564 0.697292,-0.093268 0.697291,-0.093268 0.61483,0.1193344 0.614828,0.1193346 0.4487,-0.134434 0.448702,-0.1344339 0.583453,0.1251284 0.583453,0.1251282 0.364981,-0.1887388 0.364981,-0.1887388 0.660986,0.1466277 0.660987,0.1466277 1.053873,0.00537 1.053875,0.00537 0.483485,0.3195918 0.483487,0.3195919 h 0.130984 0.130985 l 0.344546,0.2899173 0.344548,0.2899173 0.776274,0.3937853 0.776274,0.3937851 0.677905,0.4127855 0.677906,0.4127854 0.598948,0.1284516 0.59895,0.1284517 0.245131,0.1606156 0.24513,0.1606156 0.918534,0.2356688 0.918535,0.2356686 1.45269,0.3454242 1.452691,0.3454241 1.22026,0.073294 1.220259,0.073294 0.261485,0.05415 0.261484,0.05415 v 0.230217 0.230217 H 39.6875 0 Z"
       id="path388" />
  </g>
</svg>
