<?xml version="1.0" encoding="UTF-8" standalone="no"?>
<!-- Created with Inkscape (http://www.inkscape.org/) -->

<svg
   width="512"
   height="512"
   viewBox="0 0 135.46662 135.46663"
   version="1.1"
   id="svg2552"
   inkscape:version="1.1 (c4e8f9e, 2021-05-24)"
   sodipodi:docname="icon.svg"
   xmlns:inkscape="http://www.inkscape.org/namespaces/inkscape"
   xmlns:sodipodi="http://sodipodi.sourceforge.net/DTD/sodipodi-0.dtd"
   xmlns="http://www.w3.org/2000/svg"
   xmlns:svg="http://www.w3.org/2000/svg">
  <sodipodi:namedview
     id="namedview2554"
     pagecolor="#ffffff"
     bordercolor="#666666"
     borderopacity="1.0"
     inkscape:pageshadow="2"
     inkscape:pageopacity="0.0"
     inkscape:pagecheckerboard="true"
     inkscape:document-units="px"
     showgrid="false"
     units="px"
     inkscape:showpageshadow="false"
     inkscape:zoom="0.46947952"
     inkscape:cx="1034.1239"
     inkscape:cy="560.19483"
     inkscape:window-width="1816"
     inkscape:window-height="894"
     inkscape:window-x="0"
     inkscape:window-y="23"
     inkscape:window-maximized="0"
     inkscape:current-layer="layer1" />
  <defs
     id="defs2549" />
  <g
     inkscape:label="Layer 1"
     inkscape:groupmode="layer"
     id="layer1">
    <path
       style="fill:#4c5964;fill-opacity:1;stroke-width:0.0592532"
       d="m 17.961936,91.439608 c -0.0899,-0.018 -0.32529,-0.107829 -0.503199,-0.181509 -0.17972,-0.0719 -0.382799,-0.14377 -0.454679,-0.16174 -0.23363,-0.0539 -1.108838,-0.981238 -1.297537,-1.373017 -0.16174,-0.332469 -0.1887,-0.361229 -0.366619,-0.363029 -0.16174,-5.3e-4 -0.709869,-0.258779 -1.286747,-0.611028 -0.585869,-0.35763 -2.045336,-1.604847 -2.045336,-1.750407 0,-0.161749 0.296529,-0.456479 0.830288,-0.806918 0.864418,-0.569698 2.049996,-1.218467 2.227015,-1.218467 0.0539,0 0.14377,-0.0539 0.21206,-0.10783 0.0899,-0.0899 0.319889,-0.181509 0.909358,-0.382789 0.589458,-0.201279 0.846448,-0.244409 1.669536,-0.280349 0.783558,-0.036 0.920138,-0.0719 1.065708,-0.16175 0.0899,-0.0719 0.179719,-0.1887 0.188699,-0.267769 0.0113,-0.0899 0.0719,-0.32888 0.16174,-0.557109 0.183309,-0.564309 0.246209,-1.029768 0.143779,-1.056728 -0.036,-0.0117 -0.253399,-0.0719 -0.465458,-0.125799 -0.832079,-0.21745 -1.033358,-0.28934 -1.326298,-0.465459 -0.161739,-0.0898 -0.345049,-0.21745 -0.395369,-0.25879 -0.0539,-0.0539 -0.454679,-0.161739 -0.898568,-0.285739 -1.105247,-0.28575 -1.349657,-0.384589 -3.015063,-1.216667 -1.329887,-0.664939 -1.390987,-0.708069 -1.801636,-1.286748 -0.1258,-0.179719 -0.316299,-1.133997 -0.325279,-1.647986 -0.006,-0.343249 -0.0719,-0.487019 -0.339659,-0.706278 -0.10783,-0.0898 -0.27497,-0.30731 -0.379199,-0.488819 C 10.271783,75.333635 9.8207044,74.855596 8.8807965,73.998358 8.2320279,73.407099 7.6803092,72.73856 7.4089398,72.212002 7.30111,72.005322 7.1771103,71.769903 7.1321804,71.687233 c -0.0359,-0.0899 -0.1257997,-0.29114 -0.1797096,-0.463659 -0.0539,-0.17972 -0.1617496,-0.363029 -0.2246495,-0.420539 -0.1437697,-0.1258 -0.2192495,-0.571489 -0.2246395,-1.486227 l -0.003,-0.562509 -0.1832996,-0.0899 c -0.1617496,-0.0719 -0.1940995,-0.0719 -0.2587894,3.6e-4 -0.1437697,0.143769 -0.3252892,1.301127 -0.3630292,2.214435 -0.018,0.549928 -0.1437696,1.574296 -0.1886995,1.649776 -0.018,0.0359 -0.0539,0.255199 -0.0539,0.483429 -0.008,0.228239 -0.0359,0.760198 -0.0539,1.186117 -0.018,0.424129 -0.003,2.068505 0.0359,3.655382 0.0359,1.586876 0.0539,2.935813 0.0359,2.997813 -0.0539,0.17972 -0.5445287,0.496009 -0.8051182,0.530159 -0.2677794,0.0359 -0.5966486,-0.0899 -0.7368283,-0.294729 -0.1257997,-0.16175 -0.1257997,-0.663149 -0.002,-1.770186 0.3360692,-3.210593 0.4960089,-5.081599 0.5876687,-6.906775 0.0539,-1.029758 0.1078297,-1.721656 0.1617396,-1.803606 0.0359,-0.0899 0.0719,-0.472649 0.0899,-1.056727 0.0155,-1.142978 -0.0111,-1.423327 -0.1437697,-1.466467 C 4.4961563,68.02948 3.4717786,67.555022 2.3029212,66.979943 1.1581438,66.415635 0.24753584,65.912436 0.0832762,65.750696 -0.02455355,65.642866 -0.02455355,65.624896 0.06527624,65.542227 0.173106,65.434397 2.8945099,64.514259 3.6352983,64.334549 3.8994777,64.262649 4.2876568,64.15484 4.4997163,64.08295 l 0.3845892,-0.1258 0.0899,-0.652358 c 0.0539,-0.35764 0.1257997,-0.745819 0.1617396,-0.859039 0.0359,-0.107829 0.0719,-0.434909 0.0899,-0.713468 0.0162,-0.487019 0.0899,-1.108827 0.2138595,-1.637196 0.0359,-0.14377 0.0539,-0.400759 0.0539,-0.587659 0,-0.240819 0.036,-0.372009 0.1078297,-0.452879 0.0899,-0.0899 0.1078298,-0.231829 0.1078298,-0.657758 0.004,-0.29832 0.0359,-0.752999 0.0899,-1.011788 l 0.0719,-0.469059 -0.1617396,-0.14377 c -0.0899,-0.0898 -0.2318295,-0.14377 -0.3216893,-0.1258 -0.1617396,0.007 -0.9524878,-0.260579 -1.2849571,-0.433109 C 3.716299,56.013788 3.5851093,55.717259 3.7738088,55.476439 3.9535184,55.25 4.4477273,54.98402 4.6903468,54.98402 c 0.0719,0 0.1617396,-0.0359 0.2030795,-0.0719 0.0359,-0.0539 0.3720092,-0.0899 0.7961282,-0.125799 0.7152684,-0.0539 0.7224484,-0.0539 0.7799583,-0.22465 0.0359,-0.1258 0.0359,-0.210259 -0.0359,-0.355829 -0.0719,-0.14377 -0.1078298,-0.386389 -0.1257997,-0.871618 -0.0133,-0.375599 -0.0359,-0.767378 -0.0719,-0.875208 -0.0359,-0.1258 -0.0153,-0.26058 0.018,-0.364819 0.0539,-0.14377 0.0539,-0.21745 -0.004,-0.382789 -0.0719,-0.18151 -0.0719,-0.22464 0.018,-0.31629 0.0719,-0.0899 0.0899,-0.179719 0.0539,-0.363029 -0.0359,-0.20308 0,-0.332469 0.1257997,-0.621809 0.2426095,-0.537348 0.2551895,-0.573288 0.3252793,-0.927327 0.0719,-0.39357 0.3630192,-0.873409 0.5696987,-0.950688 0.0899,-0.0359 0.2677694,-0.0539 0.4133391,-0.0539 0.2192495,0 0.3198893,0.0539 0.6146186,0.267769 0.3738092,0.28395 0.3738092,0.28216 0.479839,0.821298 0.1851095,0.934508 0.1617396,2.130866 -0.0359,2.448605 -0.0719,0.10783 -0.0899,0.228239 -0.0539,0.557109 0.0359,0.400769 0.0359,0.416939 -0.0719,0.380999 -0.1078297,-0.0359 -0.1257997,0.003 -0.1851096,0.305509 -0.0359,0.1887 -0.0899,0.425929 -0.1257997,0.524769 -0.0359,0.0899 -0.0539,0.253399 -0.0539,0.341459 0,0.1258 -0.036,0.17971 -0.1437696,0.21745 -0.0899,0.0359 -0.1437797,0.0899 -0.1437797,0.125799 0.003,0.23902 -0.1437697,0.23363 5.6049271,0.23004 6.906234,-0.004 14.127148,-0.0539 14.208198,-0.10783 0.0359,-0.018 1.128607,-0.0539 2.433684,-0.0539 2.485625,-0.0119 4.845279,-0.0899 5.897327,-0.206669 0.341449,-0.0359 0.902158,-0.0899 1.243617,-0.10783 0.341459,-0.018 1.101648,-0.0898 1.689316,-0.14377 0.585869,-0.0539 1.373007,-0.1258 1.748616,-0.143769 0.639779,-0.0539 2.052696,-0.20667 3.199633,-0.36123 0.27676,-0.0359 0.842858,-0.125799 1.259787,-0.210259 0.415139,-0.0899 0.833879,-0.14377 0.930928,-0.14377 0.0898,0 0.23542,-0.018 0.3109,-0.0539 0.125799,-0.0539 0.999207,-0.186899 1.736036,-0.274959 0.161749,-0.018 0.628998,-0.0899 1.036957,-0.17972 0.735029,-0.143769 1.743227,-0.300119 2.992234,-0.478039 0.357629,-0.0539 0.797938,-0.125799 0.977648,-0.143769 0.179709,-0.018 0.620008,-0.0899 0.977647,-0.14377 0.887788,-0.1258 2.087556,-0.327079 2.275175,-0.400759 0.1258,-0.0539 0.659549,-0.1258 1.782766,-0.2534 0.17971,-0.018 0.418729,-0.0539 0.533749,-0.0899 0.10783,-0.0359 0.594859,-0.10783 1.065708,-0.17971 0.907558,-0.1258 2.064915,-0.298329 2.903463,-0.447489 0.27676,-0.0539 0.783548,-0.1258 1.125008,-0.17972 0.808708,-0.107819 1.723456,-0.256989 2.133025,-0.343249 0.17972,-0.0359 0.379199,-0.0719 0.443899,-0.0899 0.0719,-0.005 0.278549,-0.0359 0.47444,-0.0719 0.990228,-0.18331 2.170765,-0.36842 2.547803,-0.39717 0.125811,-0.0101 0.33068,-0.0539 0.4439,-0.0899 0.19409,-0.0719 0.578678,-0.1258 1.570696,-0.19409 0.228239,-0.018 1.094467,-0.14377 1.925826,-0.280359 0.830278,-0.14377 1.844226,-0.29473 2.251634,-0.352239 1.434117,-0.20307 3.172853,-0.472649 3.436492,-0.530149 0.14377,-0.036 0.479839,-0.0899 0.740419,-0.1258 0.260589,-0.0359 0.567899,-0.0899 0.681118,-0.12581 0.271371,-0.0719 2.447165,-0.386379 3.318243,-0.476239 0.463659,-0.0539 0.776368,-0.125799 0.977648,-0.206669 0.494209,-0.22824 2.037955,-0.386389 3.584752,-0.370209 1.151967,0.012 2.837503,0.125799 2.951623,0.194089 0.018,0.012 0.377399,0.0539 0.783558,0.0899 0.724249,0.0539 2.614304,0.305509 3.256593,0.418729 0.17972,0.0359 0.672138,0.0899 1.096258,0.14377 0.424129,0.0539 0.927327,0.125799 1.119617,0.161749 0.1923,0.0359 0.738628,0.10782 1.214867,0.17971 0.871618,0.10783 1.441326,0.222849 3.175556,0.620019 0.52117,0.125799 1.08188,0.239019 1.24362,0.265969 0.16175,0.018 0.35045,0.0539 0.41514,0.0899 0.0719,0.018 0.33248,0.0899 0.59306,0.143769 0.26059,0.0539 0.60743,0.16175 0.77097,0.22824 0.16174,0.0539 0.42952,0.14377 0.59306,0.18151 0.16174,0.0359 0.36841,0.0719 0.45467,0.0899 0.32888,0.0719 0.8195,0.668539 0.8195,0.999208 0,0.2534 -0.1258,0.298329 -0.72604,0.2552 -0.30193,-0.018 -0.77457,-0.0539 -1.05133,-0.0539 -0.27676,-0.012 -0.98663,-0.0539 -1.57609,-0.0899 -1.01359,-0.0539 -1.08548,-0.0539 -1.33348,0.0539 -0.14377,0.0539 -0.381,0.143769 -0.52836,0.192289 -0.14377,0.0539 -0.29294,0.0899 -0.32349,0.1258 -0.0359,0.018 -0.16174,0.0539 -0.29833,0.0539 -0.1258,0 -0.29473,0.0359 -0.36122,0.0899 -0.0539,0.0539 -0.21925,0.107829 -0.33966,0.125799 -0.12579,0.018 -0.23901,0.0719 -0.26417,0.10783 -0.0539,0.0719 -0.652377,0.21207 -0.965076,0.21566 -0.10783,9e-4 -0.25519,0.0359 -0.31809,0.0899 -0.0719,0.0539 -0.179719,0.0899 -0.248009,0.0899 -0.0719,0 -0.14377,0.018 -0.16174,0.0539 -0.018,0.018 -0.143769,0.0719 -0.282149,0.0899 -0.1258,0.018 -0.366619,0.0899 -0.508599,0.16174 -0.14377,0.0539 -0.305509,0.107829 -0.359429,0.107829 -0.0539,0 -0.19948,0.0539 -0.319889,0.1258 -0.1258,0.0539 -0.28035,0.1258 -0.35404,0.10783 -0.0719,-0.003 -0.213859,0.018 -0.312699,0.0539 -0.639779,0.224649 -0.923728,0.305519 -1.080078,0.305519 -0.107829,0 -0.212069,0.0359 -0.253399,0.0898 -0.0359,0.0539 -0.16174,0.0899 -0.267769,0.0899 -0.10783,0 -0.22824,0.0539 -0.27137,0.0899 -0.0539,0.0719 -0.125799,0.0899 -0.296529,0.0539 -0.16175,-0.018 -0.2534,-0.006 -0.361229,0.0719 -0.0899,0.0539 -0.26957,0.1258 -0.422329,0.16174 -0.14377,0.018 -0.29473,0.0539 -0.3127,0.0899 -0.018,0.018 -0.125799,0.0539 -0.258789,0.0539 -0.1258,0 -0.258789,0.036 -0.300119,0.0899 -0.036,0.0539 -0.14377,0.0899 -0.21746,0.0899 -0.0899,0 -0.224639,0.0539 -0.325279,0.0899 -0.10783,0.0539 -0.28934,0.10782 -0.422329,0.1258 -0.1258,0.0119 -0.26957,0.0539 -0.30192,0.0898 -0.0359,0.036 -0.143769,0.0539 -0.244409,0.0539 -0.0899,0 -0.235429,0.0359 -0.300129,0.0898 -0.0539,0.0539 -0.23183,0.0899 -0.3756,0.0899 -0.161739,10e-4 -0.285739,0.0359 -0.325279,0.0899 -0.0359,0.0539 -0.161749,0.0899 -0.289339,0.0899 -0.1258,0.005 -0.2516,0.0539 -0.289339,0.0898 -0.036,0.0539 -0.14377,0.0899 -0.22105,0.0899 -0.0899,10e-4 -0.222849,0.0359 -0.303719,0.0899 -0.0899,0.0539 -0.21925,0.0899 -0.30551,0.0899 -0.0899,10e-4 -0.233629,0.0359 -0.325289,0.0899 -0.276759,0.14377 -0.576879,0.21386 -0.833868,0.21386 -0.19589,0 -0.251599,0.018 -0.283949,0.1258 -0.0359,0.0899 -0.0719,0.125799 -0.20128,0.0899 -0.0899,-0.012 -0.235429,0.006 -0.327079,0.0539 -0.0899,0.0539 -0.23543,0.0899 -0.321689,0.0899 -0.0899,0 -0.21027,0.0359 -0.27496,0.0899 -0.0719,0.0539 -0.230039,0.0899 -0.368419,0.1258 -0.14377,0.018 -0.265979,0.0719 -0.285739,0.0899 -0.018,0.018 -0.14378,0.0539 -0.29294,0.0539 -0.143769,0 -0.276759,0.018 -0.296529,0.0539 -0.018,0.0359 -0.1258,0.0539 -0.22105,0.0539 -0.0899,0 -0.226439,0.0359 -0.278549,0.0899 -0.17972,0.14377 -0.790748,0.215649 -2.029155,0.215649 -0.808719,0 -1.234638,0.018 -1.234638,0.0539 0,0.0359 0.0359,0.0719 0.10783,0.0899 0.0539,0.012 0.16174,0.0539 0.22284,0.0898 0.0539,0.036 0.321689,0.16175 0.569698,0.289339 0.24801,0.1258 0.483429,0.26418 0.526559,0.3145 0.0359,0.0539 0.10783,0.0899 0.14377,0.0899 0.036,0 0.212069,0.0719 0.382799,0.14377 0.17971,0.0899 0.389979,0.16175 0.485229,0.18511 0.204869,0.0359 0.228229,0.181509 0.0359,0.249799 -0.1258,0.0539 -0.891388,0.14377 -1.110638,0.14377 -0.0539,-7.2e-4 -0.368409,0.0539 -0.711668,0.10783 -0.341449,0.0539 -0.688299,0.107829 -0.770968,0.107829 -0.0899,5.4e-4 -0.26778,0.0359 -0.415139,0.0539 -0.14377,0.036 -0.639789,0.10783 -1.096258,0.14378 -0.456479,0.0539 -1.002808,0.1258 -1.214867,0.143769 -0.891378,0.14377 -1.110638,0.17971 -1.378407,0.17971 -0.16174,7.2e-4 -0.328879,0.018 -0.384589,0.0539 -0.16174,0.0898 -1.044138,0.1887 -1.805226,0.213859 -0.684709,0.018 -1.349657,0.14377 -1.461077,0.28754 -0.018,0.0359 -0.14377,0.294729 -0.274959,0.571489 -0.1258,0.276759 -0.26958,0.616418 -0.33068,0.753008 -0.0719,0.14377 -0.107829,0.328869 -0.107829,0.429509 0,0.0899 -0.0719,0.361229 -0.17971,0.580479 -0.305519,0.713468 -0.438509,1.047737 -0.515779,1.299337 -0.0719,0.244409 -0.0719,0.249799 0.10783,0.389979 0.107821,0.0719 0.24261,0.161739 0.30731,0.186899 0.278549,0.10783 3.704622,0.429519 5.302998,0.503199 0.440299,0.018 0.833878,0.0719 0.877008,0.0899 0.0899,0.0539 2.307345,0.274959 4.69305,0.454679 0.440309,0.0359 0.866228,0.0719 0.948898,0.0898 0.0898,0.0119 0.787148,0.0899 1.570696,0.14378 0.781758,0.0719 1.674936,0.143769 1.984945,0.179709 1.640787,0.17971 1.876937,0.18511 2.341675,0.1258 0.26058,-0.0359 0.605638,-0.0719 0.769178,-0.0899 0.161739,-0.018 0.522969,-0.0719 0.799728,-0.10783 0.276759,-0.0539 0.797928,-0.125799 1.155557,-0.179709 0.35763,-0.0359 1.184318,-0.17971 1.836856,-0.27137 0.652369,-0.0899 1.452097,-0.217449 1.777376,-0.264179 0.325281,-0.0359 0.832078,-0.1258 1.125008,-0.17971 0.582278,-0.107829 1.570706,-0.248009 3.161892,-0.474449 0.5661,-0.0899 1.22925,-0.201279 1.47186,-0.271369 0.53196,-0.14377 1.71448,-0.648769 2.10518,-0.887788 0.90755,-0.558909 2.39702,-1.839556 2.91028,-2.503234 0.16175,-0.21746 0.5715,-0.702689 0.89678,-1.080088 0.32528,-0.377399 0.69909,-0.815898 0.83028,-0.974048 0.1258,-0.161739 0.56969,-0.677518 0.97764,-1.155557 0.40795,-0.478039 0.80692,-0.954288 0.88958,-1.056718 0.0719,-0.10783 0.32169,-0.389979 0.53376,-0.637988 0.21206,-0.24801 0.54453,-0.643379 0.74042,-0.880598 0.19589,-0.23543 0.48882,-0.582279 0.65236,-0.769179 0.85724,-0.984838 1.86633,-2.195925 1.86633,-2.240315 0,-0.018 0.0899,-0.143769 0.21386,-0.255199 0.31809,-0.305509 1.94217,-2.242105 3.27008,-3.900871 0.21926,-0.27317 0.51218,-0.618219 0.65056,-0.765579 0.14377,-0.143769 0.2516,-0.289339 0.2516,-0.314499 0,-0.0899 1.21487,-1.268787 1.43412,-1.403567 0.22644,-0.14378 0.57689,-0.161749 0.74761,-0.0539 0.0899,0.0539 0.14378,0.036 0.29114,-0.125799 0.36842,-0.37021 0.78715,-0.16174 0.78715,0.382789 v 0.294739 l 0.67212,0.006 c 0.381,0.003 0.72605,0.0359 0.79794,0.0719 0.1258,0.0719 0.78535,0.14377 2.08522,0.267779 0.14378,0.0119 0.4403,0.0539 0.65237,0.0899 0.21206,0.0359 0.91833,0.1258 1.57069,0.18691 1.59407,0.161739 1.80721,0.242609 1.80721,0.620008 0,0.23004 -0.0899,0.372009 -0.28934,0.397169 -0.10783,0.012 -0.16174,0.0899 -0.248,0.36662 -0.0539,0.192289 -0.17972,0.418729 -0.25879,0.504998 -0.0899,0.0899 -0.16175,0.2498 -0.1905,0.36302 -0.018,0.107829 -0.0539,0.233629 -0.0899,0.267769 -0.0359,0.0359 -0.0899,0.20668 -0.1258,0.384589 -0.0539,0.17972 -0.1258,0.469059 -0.18331,0.648769 -0.0539,0.179719 -0.16174,0.512189 -0.22284,0.740428 -0.0719,0.22823 -0.14377,0.461859 -0.17972,0.517569 -0.0359,0.0539 -0.0539,0.16175 -0.0539,0.219259 0,0.0539 -0.0359,0.1258 -0.0539,0.14377 -0.0359,0.0119 -0.0719,0.16174 -0.0899,0.307309 -0.018,0.14377 -0.0719,0.33247 -0.0899,0.400759 -0.0359,0.0719 -0.10783,0.32529 -0.17972,0.569699 -0.0719,0.24441 -0.19049,0.620009 -0.27315,0.835668 -0.0899,0.21386 -0.16174,0.533749 -0.18331,0.709869 -0.018,0.179719 -0.0719,0.391779 -0.10783,0.479839 -0.0359,0.0899 -0.10783,0.300119 -0.14377,0.469049 -0.0359,0.161749 -0.10783,0.391779 -0.17972,0.490629 -0.0539,0.0899 -0.10782,0.228229 -0.10782,0.283939 0,0.0539 -0.036,0.188699 -0.0899,0.296529 -0.0719,0.16175 -0.33786,1.006398 -0.51039,1.617427 -0.018,0.0899 -0.14377,0.496018 -0.26059,0.887788 -0.10783,0.389979 -0.21026,0.779958 -0.21026,0.866228 0,0.0899 -0.0899,0.355829 -0.18511,0.594848 -0.10783,0.24082 -0.20667,0.490619 -0.23363,0.555319 -0.0359,0.0539 -0.0719,0.2498 -0.0899,0.407949 -0.018,0.16175 -0.0719,0.359429 -0.10783,0.445689 -0.0359,0.0899 -0.10783,0.28755 -0.16175,0.451089 -0.0359,0.16174 -0.0899,0.321689 -0.1258,0.352239 -0.0359,0.0359 -0.0539,0.1258 -0.0539,0.21925 0,0.0899 -0.0359,0.237219 -0.0719,0.328879 -0.0359,0.0899 -0.0899,0.24621 -0.14377,0.343249 -0.0719,0.17972 -0.10783,0.30552 -0.41334,1.302927 -0.0899,0.29294 -0.21206,0.693699 -0.27676,0.889588 -0.0719,0.19589 -0.14377,0.449289 -0.16174,0.564299 -0.0899,0.319889 -0.39538,1.374817 -0.46007,1.540157 -0.0719,0.161739 0.0539,1.878186 0.14377,1.956905 0.0359,0.018 1.72885,0.0719 3.78209,0.0719 3.76663,0.0359 4.99964,0.0899 5.71292,0.24262 0.21386,0.0359 0.68292,0.125799 1.04235,0.181509 0.77457,0.10783 1.45569,0.24082 1.76659,0.327079 0.16174,0.0359 0.22105,0.10783 0.20667,0.16174 -0.018,0.10783 -0.16174,0.10783 -1.49882,0.10783 -0.8141,0.006 -1.57429,0.0119 -1.68751,0.018 -1.37301,0.0899 -4.71894,0.206669 -7.57908,0.265979 -0.79614,0.0119 -1.46827,0.0359 -1.49523,0.0719 -0.0359,0.0119 -0.0539,0.14377 -0.0539,0.267769 0,0.40436 -0.16175,0.566099 -0.62181,0.650569 -0.80332,0.14377 -1.42873,0.296529 -1.86777,0.451079 -0.74042,0.260589 -1.46647,0.490619 -1.55273,0.492419 -0.036,1.8e-4 -0.14377,0.0359 -0.22824,0.0719 -0.0899,0.0359 -0.23003,0.10783 -0.32528,0.125799 -0.25879,0.0719 -1.42872,0.42772 -2.31867,0.724249 -0.42952,0.14378 -0.84466,0.260589 -0.92193,0.260589 -0.0719,0 -0.17972,0.0359 -0.20668,0.0719 -0.0359,0.0359 -0.26238,0.0899 -0.5014,0.10782 -0.23902,0.0121 -0.6326,0.036 -0.877,0.0719 -0.24441,0.0359 -0.83028,0.0899 -1.30293,0.125799 -0.47265,0.0359 -0.96506,0.0899 -1.09626,0.1258 -0.1258,0.0359 -0.51757,0.0899 -0.85903,0.10783 -0.34146,0.0359 -0.84825,0.0719 -1.12501,0.10783 -0.86801,0.107829 -1.97344,0.221049 -2.73525,0.273159 -0.20667,0.012 -0.54813,0.036 -0.76019,0.0899 -0.21206,0.0359 -0.78535,0.10783 -1.27417,0.14377 -1.91683,0.188699 -2.2369,0.221049 -3.52564,0.359429 -0.73322,0.0719 -2.026275,0.212059 -2.873624,0.294729 -0.846458,0.0899 -1.741426,0.17972 -1.984945,0.20847 -0.389979,0.036 -1.112427,0.125799 -2.192335,0.210269 -0.17971,0.012 -0.47264,0.0359 -0.652359,0.0899 -0.17971,0.0359 -0.632589,0.0899 -1.008197,0.1258 -1.116017,0.107819 -4.4472,0.436699 -6.251176,0.628998 -1.346058,0.14377 -2.560564,0.26238 -3.288584,0.32348 -0.375608,0.036 -1.067507,0.0899 -1.540155,0.143769 -1.531157,0.16175 -3.137804,0.323489 -4.673461,0.472649 -0.826688,0.0899 -1.586876,0.16175 -1.689316,0.17972 -0.0899,0.012 -0.770968,0.0899 -1.488027,0.143769 -0.717058,0.0719 -1.556326,0.16174 -1.866515,0.20308 -0.30911,0.0359 -0.830278,0.10783 -1.155558,0.1258 -0.325289,0.018 -0.805118,0.0719 -1.065707,0.125799 -0.850048,0.14377 -3.033754,0.38638 -4.59206,0.503199 -0.440299,0.0359 -1.319097,0.10783 -1.955286,0.17971 -0.636188,0.0719 -1.502406,0.14377 -1.925815,0.179719 -0.708079,0.0539 -1.653367,0.14377 -2.932934,0.29473 -0.276759,0.0359 -0.756598,0.0719 -1.067497,0.0899 -1.421547,0.0899 -3.191193,0.296519 -3.392293,0.395369 -0.1258,0.0539 -0.1258,0.231829 -0.01,0.578678 0.0539,0.14377 0.1258,0.37201 0.14377,0.503199 0.0359,0.1258 0.10783,0.465459 0.179719,0.742219 0.0719,0.276759 0.14377,0.596648 0.16174,0.709868 l 0.0359,0.20667 0.443899,0.0359 c 0.244409,0.018 0.992018,0.0539 1.658756,0.0719 0.668539,0.012 1.254408,0.036 1.302927,0.0539 0.0539,0.012 0.27496,0.0539 0.503199,0.0719 0.22824,0.012 0.535549,0.0719 0.681119,0.0899 0.143769,0.0359 0.587668,0.10783 0.977648,0.161739 0.391769,0.0539 0.884188,0.1258 1.096257,0.17972 0.21206,0.0359 0.407949,0.0719 0.434899,0.0359 0.036,-0.012 0.10783,-0.003 0.17972,0.018 0.143769,0.0719 0.702678,0.1887 1.687516,0.370209 0.368409,0.0719 0.727838,0.14378 0.799728,0.17972 0.0719,0.018 0.24441,0.0899 0.382789,0.125799 0.14377,0.0359 0.34325,0.14377 0.454679,0.24621 0.415139,0.364819 1.272377,1.782766 1.196898,1.979545 -0.036,0.10783 -0.40077,0.33787 -0.986638,0.641579 -0.24441,0.1258 -0.487019,0.267779 -0.537339,0.312709 -0.0539,0.0359 -0.1258,0.0898 -0.16175,0.0898 -0.0539,0 -0.402559,0.14378 -0.551718,0.23902 -0.25879,0.161749 -0.763789,0.398969 -0.918338,0.436709 -0.0899,0.018 -0.29833,0.0899 -0.443899,0.161739 -0.454669,0.20488 -0.497799,0.22105 -0.711659,0.24801 -0.213869,0.018 -0.805128,0.190499 -1.477256,0.411549 -0.25879,0.0898 -0.566099,0.125799 -0.948888,0.143769 l -0.566099,0.012 -0.256989,0.433109 c -0.32169,0.548129 -0.939908,1.182518 -1.407167,1.444907 -0.19768,0.10782 -0.571489,0.27316 -0.830278,0.357629 -0.436709,0.14377 -0.528359,0.16174 -1.270578,0.1258 -0.727838,-0.036 -0.839268,-0.036 -1.234637,-0.208469 -0.575089,-0.24082 -0.842858,-0.427719 -1.344257,-0.934518 -0.386389,-0.391769 -0.648768,-0.814099 -0.907558,-1.462867 -0.0539,-0.14377 -0.10783,-0.16175 -0.267779,-0.16175 -0.30371,0 -0.817698,-0.314499 -2.673244,-1.633596 -0.853638,-0.605639 -0.742219,-0.585869 -1.392787,-0.276759 -0.763778,0.361219 -1.797136,0.724248 -2.127635,0.751208 -0.14377,0.0113 -0.363019,0.0719 -0.472648,0.1258 -0.1851,0.107819 -0.406149,0.161739 -1.399967,0.348639 l -0.355839,0.0719 -0.206671,0.382789 c -0.370209,0.684708 -1.236427,1.435917 -1.968224,1.703686 -0.39178,0.14377 -1.603057,0.16175 -2.039576,0.0539 -0.700888,-0.20488 -1.162757,-0.467259 -1.673136,-0.954288 -0.465459,-0.443889 -0.688309,-0.790738 -0.956088,-1.491627 -0.0359,-0.125799 -0.0899,-0.125799 -0.285739,-0.0899 -0.20128,0.0359 -0.29473,0.004 -0.637989,-0.18691 -0.790738,-0.440299 -1.594066,-0.936308 -1.929766,-1.189707 -0.186909,-0.14377 -0.355839,-0.25879 -0.373809,-0.25879 -0.0719,0 -0.593058,-0.433109 -0.655958,-0.548129 -0.0539,-0.107819 -0.0359,-0.179709 0.036,-0.363019 0.125799,-0.276759 0.181509,-0.327079 0.974047,-0.846448 0.32528,-0.213859 0.659549,-0.434909 0.740419,-0.490629 0.222849,-0.161739 1.604846,-0.817698 1.807566,-0.864418 0.0899,-0.018 0.310909,-0.10783 0.474449,-0.179719 0.276759,-0.1258 0.397169,-0.16174 1.008197,-0.33067 0.22284,-0.0719 2.457045,-0.161739 3.808862,-0.161739 0.526559,-0.004 0.612819,-0.036 0.641578,-0.10783 0.0359,-0.1258 0.0359,-0.1258 0.35224,-0.582279 0.125799,-0.192289 0.341449,-0.456469 0.463659,-0.582268 0.161739,-0.16175 0.203079,-0.24981 0.161739,-0.29294 -0.0719,-0.0539 -2.422364,0.0124 -4.53778,0.14377 -0.553518,0.0359 -1.833805,0.0719 -2.844153,0.0719 -1.484437,0.009 -1.863456,-0.005 -1.975956,-0.0719 -0.10783,-0.0719 -0.321689,-0.0719 -0.859038,-0.0719 -0.397169,0.01 -0.754798,-0.003 -0.794328,-0.018 -0.0359,-0.018 -0.1258,-0.018 -0.19589,-0.007 -0.0719,0.018 -0.161749,0.012 -0.192299,-0.0359 -0.0359,-0.036 -0.377399,-0.0719 -0.752998,-0.1258 -0.37561,-0.036 -1.175328,-0.107829 -1.779177,-0.185109 -1.581476,-0.16174 -2.586444,-0.271369 -3.470632,-0.345049 l -0.778168,-0.0719 -0.551719,0.183309 c -0.303719,0.10783 -0.584068,0.18331 -0.621808,0.18331 -0.0359,0 -0.10783,0.0359 -0.14377,0.0899 -0.0899,0.0899 -0.312709,0.1258 -0.472649,0.0359 -0.0899,-0.0359 -0.14377,-0.018 -0.262389,0.0719 -0.17971,0.143769 -0.19588,0.244409 -0.0719,0.352239 0.0539,0.0539 0.0899,0.125799 0.0899,0.201279 -0.0173,0.22823 0.003,0.27316 0.125799,0.27316 0.0719,0 0.23362,0.0539 0.370209,0.125799 0.14377,0.0719 0.34325,0.14377 0.456469,0.17972 0.1258,0.018 0.28755,0.0539 0.38459,0.0898 0.0899,0.018 0.224639,0.0899 0.282149,0.1258 0.386389,0.337869 -0.336059,1.493426 -0.934508,1.493426 -0.0899,0 -0.18151,0.0719 -0.273169,0.21206 -0.1258,0.190499 -0.833868,0.706278 -1.295737,0.943508 -0.31809,0.161739 -0.22464,0.235419 0.605638,0.469049 0.431309,0.125799 0.898568,0.273169 1.036948,0.336069 0.14377,0.0719 0.305519,0.1258 0.372009,0.1258 0.1258,0 2.088815,0.609228 2.661924,0.824888 0.447489,0.161739 0.663149,0.402559 1.103448,1.196897 0.386379,0.695488 0.442099,0.876998 0.307309,0.986628 -0.0899,0.0719 -1.209477,0.474439 -1.466467,0.531949 -0.0899,0.0359 -0.240819,0.107829 -0.355829,0.161749 -0.1258,0.0719 -0.354039,0.17971 -0.533759,0.22644 -0.179709,0.0539 -0.620008,0.179709 -0.977638,0.276759 -0.357639,0.0898 -0.796138,0.22464 -0.972257,0.271369 -0.25519,0.0719 -0.433109,0.0719 -0.889588,0.0359 -0.479829,-0.0359 -0.578679,-0.0359 -0.628999,0.0359 -0.0359,0.0359 -0.14377,0.21027 -0.237219,0.36302 -0.28215,0.436709 -0.684709,0.783558 -1.313708,1.130407 l -0.584078,0.321689 -0.593049,0.0119 c -0.325289,0.01 -0.672138,-0.006 -0.770978,-0.0359 z m 31.344469,-7.173463 c 0.0719,-0.0719 0.29294,-0.1887 0.503199,-0.28934 0.21207,-0.10783 0.558919,-0.278559 0.770979,-0.395379 0.212059,-0.1258 0.603838,-0.287539 0.871608,-0.380989 0.934518,-0.323489 1.121417,-0.736828 0.688308,-1.527567 -0.10783,-0.219259 -0.273169,-0.506799 -0.343249,-0.639788 -0.0719,-0.14377 -0.257,-0.434909 -0.418739,-0.672129 l -0.29293,-0.429519 -0.445699,0.036 c -0.244409,0.018 -1.098047,0.0539 -1.897055,0.0719 -1.383797,0.0359 -1.606647,0.0539 -2.169695,0.19769 -0.1258,0.0359 -0.576879,0.0719 -0.984828,0.0899 -0.837468,0.036 -1.011788,0.10783 -1.669546,0.611029 -0.634389,0.501409 -1.020778,0.896778 -0.932718,0.956088 0.0359,0.018 0.456479,0.0719 0.918338,0.0719 0.461869,0.006 0.945297,0.0359 1.076487,0.0719 0.1258,0.0359 0.397169,0.0898 0.593059,0.107829 0.632598,0.0898 1.534756,0.30192 1.725256,0.418729 0.0899,0.0719 0.242619,0.1258 0.312699,0.1258 0.0899,0 0.14378,0.0539 0.18152,0.14377 0.018,0.0719 0.0899,0.161749 0.14377,0.179719 0.0539,0.018 0.0899,0.0899 0.0899,0.17971 0,0.0719 0.0359,0.17972 0.0898,0.221049 0.0539,0.0539 0.17972,0.19948 0.27856,0.34865 0.494208,0.726038 0.611028,0.796128 0.902168,0.535548 z M 21.163179,83.486186 c 0.273169,-0.143779 0.571488,-0.307319 0.663148,-0.380999 0.16174,-0.14377 0.16174,-0.14377 0.0359,-0.248009 -0.14377,-0.14377 -1.275967,-0.447479 -1.351447,-0.371999 -0.036,0.018 -0.10783,0.287539 -0.16175,0.575078 -0.107819,0.497809 -0.107819,0.526569 -0.0129,0.598449 0.16175,0.1258 0.29114,0.10783 0.823099,-0.17971 z m -1.858606,-3.632922 c -0.011,-0.228239 -0.0359,-0.433119 -0.0539,-0.458279 -0.018,-0.0359 -0.492419,-0.0719 -1.042348,-0.0899 -0.697288,-0.018 -1.065697,-0.0719 -1.213067,-0.1258 -0.1258,-0.0539 -0.451079,-0.16175 -0.744018,-0.258789 -1.353247,-0.42772 -2.497485,-0.929128 -3.489863,-1.532967 -0.221049,-0.14377 -0.427719,-0.23003 -0.456479,-0.21206 -0.0899,0.0719 -0.0539,0.558909 0.0719,0.814109 0.14377,0.271369 0.33786,0.517578 0.424129,0.517578 0.0539,0 0.427719,0.16174 1.407157,0.639779 1.116028,0.537349 1.520377,0.708068 1.843866,0.781758 0.17971,0.0359 0.425919,0.0898 0.555319,0.14377 0.125799,0.0359 0.670328,0.0899 1.198687,0.0899 0.528359,0.0359 0.981248,0.0719 1.004608,0.0899 0.0359,0.018 0.161739,0.0359 0.283949,0.018 l 0.23902,-0.0129 z M 6.9557008,63.81881 c 0.0899,-0.0359 0.1257997,-0.0899 0.1257997,-0.226439 0,-0.1258 0.0359,-0.18511 0.1257997,-0.21386 0.0899,-0.018 0.1078298,-0.0719 0.0899,-0.143769 -0.018,-0.0719 -0.0539,-0.1258 -0.0719,-0.16175 -0.0359,-0.10782 0.1257997,-0.16174 0.5445388,-0.256989 0.1958895,-0.0359 0.458269,-0.10783 0.5858687,-0.16174 0.1257997,-0.0539 0.5067888,-0.1258 0.8464481,-0.17972 0.3396592,-0.0359 0.7422183,-0.125799 0.8967772,-0.143769 0.540939,-0.1258 2.618254,-0.402559 3.923692,-0.526559 0.407959,-0.0359 1.126807,-0.10783 1.599456,-0.16174 1.080088,-0.107829 1.227447,-0.125799 3.140323,-0.231839 0.862628,-0.0539 1.610246,-0.10782 1.658766,-0.1258 0.0539,-0.018 0.488819,-0.0539 0.977648,-0.0719 0.742218,-0.018 0.887788,-0.0539 0.878798,-0.125799 -0.012,-0.10783 -0.212059,-0.593059 -0.535549,-1.283158 -0.143769,-0.298329 -0.255189,-0.582278 -0.255189,-0.632598 0,-0.0539 -0.0899,-0.19948 -0.20668,-0.336059 -0.107819,-0.14378 -0.206669,-0.29653 -0.206669,-0.35764 0,-0.125799 -0.27316,-0.472649 -0.368409,-0.472649 -0.0359,0 -0.14377,-0.0719 -0.2498,-0.161739 -0.179719,-0.14377 -0.230039,-0.16174 -0.742228,-0.17971 -0.447479,-0.011 -0.576879,0.005 -0.663139,0.0899 -0.0899,0.0899 -0.213859,0.0899 -0.954288,0.0539 -1.263387,-0.0539 -2.425774,-0.14377 -3.155772,-0.20667 -0.35763,-0.036 -1.238238,-0.0899 -1.955296,-0.125799 -0.717058,-0.036 -1.970026,-0.10783 -2.784844,-0.16175 -2.5704537,-0.16174 -2.418234,-0.16174 -2.5478138,-0.0539 -0.0898,0.0719 -0.1257997,0.18511 -0.1617396,0.699089 -0.0539,0.808708 -0.0899,1.029757 -0.2318295,1.150167 -0.0539,0.0539 -0.1078297,0.16174 -0.1078297,0.228239 0,0.0719 -0.0359,0.18151 -0.0899,0.2498 -0.1078198,0.16175 -0.1815096,0.738628 -0.1078198,0.889588 0.0899,0.16174 0.018,0.363019 -0.1257997,0.407949 -0.1797196,0.0539 -0.2426195,0.303719 -0.2390295,0.943498 0.003,0.530159 -0.009,0.600248 -0.1257997,0.675728 -0.1078197,0.0719 -0.1257997,0.1258 -0.0899,0.461869 l 0.0359,0.375599 -0.1851095,0.0359 c -0.1617397,0.0359 -0.1886996,0.0719 -0.2048696,0.27496 -0.0176,0.213859 -0.0102,0.226439 0.1257997,0.197689 0.0899,-0.012 0.1833096,-0.006 0.2264395,0.018 0.0719,0.0539 0.3198893,0.018 0.5660988,-0.0719 z M 71.425266,62.742323 c 0.0359,-0.0359 0.10782,-0.18151 0.14377,-0.31091 0.107829,-0.309109 0.442089,-1.132197 0.549918,-1.371216 0.036,-0.10783 0.0899,-0.20487 0.0899,-0.22824 0,-0.018 0.0539,-0.10782 0.10783,-0.199479 0.0719,-0.0899 0.1258,-0.22464 0.16174,-0.30551 0.0359,-0.0899 0.143769,-0.368419 0.274969,-0.637988 0.1258,-0.26957 0.228229,-0.522969 0.228229,-0.564299 0,-0.0899 -0.691898,-0.10783 -0.817698,-0.018 -0.0719,0.0539 -0.354039,0.0899 -0.988428,0.10783 -0.161739,0.008 -0.334269,0.036 -0.382789,0.0719 -0.0359,0.0359 -0.213859,0.0539 -0.370209,0.0539 -0.161739,-0.003 -0.300129,0.018 -0.319889,0.0539 -0.018,0.0359 -0.10783,0.0539 -0.19769,0.018 -0.0899,-0.018 -0.240819,-0.003 -0.336069,0.0359 -0.0899,0.036 -0.280349,0.0899 -0.409739,0.0899 -0.404359,0.0359 -0.744018,0.0719 -1.511397,0.16174 -0.407959,0.0539 -0.864428,0.0899 -1.017187,0.107829 -0.14377,0.006 -0.29653,0.0359 -0.32169,0.0539 -0.0359,0.018 -0.0899,0.0539 -0.161739,0.0539 -0.19948,0 -0.10783,0.1258 0.179709,0.24801 0.745819,0.325279 1.791756,0.859028 2.651504,1.353247 0.521169,0.301919 1.067508,0.614618 1.214868,0.697288 0.143769,0.0719 0.427719,0.251599 0.621808,0.375599 0.377409,0.24082 0.510389,0.27497 0.611029,0.16174 z M 24.662211,61.171616 c 0.0719,-0.0539 0.287549,-0.307309 0.488829,-0.557108 0.364819,-0.454679 1.150167,-1.268788 1.813136,-1.885736 l 0.350439,-0.327089 -0.32169,-0.0359 c -0.179709,-0.018 -0.503198,-0.0539 -0.722448,-0.0719 -0.221049,-0.0119 -0.420529,-0.0539 -0.445689,-0.0539 -0.018,-0.0119 -0.483439,-0.0539 -1.020778,-0.0719 -0.936317,-0.0359 -0.988427,-0.0359 -1.229247,0.0899 -0.244409,0.1258 -0.506799,0.389979 -0.467259,0.465459 0.0719,0.1258 0.415139,0.884198 0.602049,1.311917 0.548119,1.249017 0.544529,1.243617 0.738618,1.241827 0.0539,-1.8e-4 0.14377,-0.0539 0.21207,-0.10783 z"
       id="path123" />
  </g>
</svg>
